<?xml version="1.0" encoding="iso-8859-1"?>
<!-- Generator: Adobe Illustrator 18.1.1, SVG Export Plug-In . SVG Version: 6.00 Build 0)  -->
<svg xmlns="http://www.w3.org/2000/svg" xmlns:xlink="http://www.w3.org/1999/xlink" version="1.1" id="Capa_1" x="0px" y="0px" viewBox="0 0 52.539 52.539" style="enable-background:new 0 0 52.539 52.539;" xml:space="preserve" width="512px" height="512px">
<g>
	<g>
		<path d="M39.377,21.163c-2.969-4.241-6.556-7.944-11.189-10.349c-0.236-0.122-2.469-0.94-3.418-1.057    l-2.249,3.208l-2.1-2.997c-1.203,0.061-1.673-0.044-2.968,0.43c-2.182,0.799-3.818,6.348-4.585,8.535    c-0.768,2.187,1.522,3.549,3.21,4.003h7.889c1.003,0,1.819-0.817,1.819-1.82c0-1.003-0.815-1.819-1.819-1.819h-6.015v-0.804h6.015    c1.446,0,2.624,1.177,2.624,2.623s-1.178,2.623-2.624,2.623h-6.588l-0.271,25.82c0,1.646,1.334,2.98,2.981,2.98    c1.646,0,2.981-1.334,2.981-2.98V36.012c0,0,0.029,0.132-0.016-1.033c0.85-2.034,1.938-0.221,1.938-0.221l1.065,11.5    c0.121,1.388,1.369,2.687,2.758,2.563c1.39-0.122,2.392-1.616,2.271-3.005l-1.072-11.58l0.006-0.001c0,0-1.473-14.48-1.673-14.644    c0.06-0.895,0.11-1.789,0.155-2.686c2.529,1.82,4.674,4.104,6.486,6.693C36.827,26.225,41.233,23.814,39.377,21.163z" fill="#D80027"/>
		<circle cx="22.884" cy="4.349" r="4.349" fill="#D80027"/>
		<path d="M22.57,10.133h-0.323c-0.025-0.211-0.229-0.376-0.478-0.376c-0.268,0-0.484,0.188-0.484,0.419    v0.561c0,0.231,0.217,0.419,0.484,0.419c0.26,0,0.471-0.179,0.481-0.402h0.316c0.01,0.223,0.221,0.402,0.482,0.402    c0.266,0,0.483-0.188,0.483-0.419v-0.561c0-0.231-0.217-0.419-0.483-0.419C22.798,9.757,22.595,9.922,22.57,10.133z" fill="#D80027"/>
	</g>
</g>
<g>
</g>
<g>
</g>
<g>
</g>
<g>
</g>
<g>
</g>
<g>
</g>
<g>
</g>
<g>
</g>
<g>
</g>
<g>
</g>
<g>
</g>
<g>
</g>
<g>
</g>
<g>
</g>
<g>
</g>
</svg>
